<svg id="Capa_1" enable-background="new 0 0 512.012 512.012" height="512" viewBox="0 0 512.012 512.012" width="512" xmlns="http://www.w3.org/2000/svg"><g><path d="m435.226 282.214c27.932 27.885 41.71 42.171 62.048 52.081 8.64 4.21 9.813 16.065 2.065 21.753-60.961 44.754-97.417 8.123-122.297-16.757-15.715-15.715-15.912-41.072-.59-57.028 15.833-16.489 42.595-16.2 58.774-.049z" fill="#a2ddfd"/><path d="m360.213 63.01c-60.051.208-108.271 49.782-108.271 109.834v31.732c0 26.768-21.901 48.362-48.669 48.415-45.871.092-85.878 25.164-107.142 62.337-1.459 2.551-4.747 3.357-7.265 1.841-6.559-3.947-14.855-6.243-24.763-6.243-27.358 0-56.591 17.464-56.591 39.007 0 23.552 33.44 40.455 60.182 38.891-1.602 27.383 15.839 60.182 38.891 60.182 21.543 0 39.006-29.233 39.006-56.591 0-3.387-.27-6.584-.782-9.589-.551-3.236 1.898-6.196 5.18-6.196h183.563c74.945 0 135.7-60.755 135.7-135.7v-69.266c0-60.136-48.854-108.862-109.039-108.654z" fill="#cde9fa"/><path d="m172.221 257.007c-32.502 8.483-59.8 29.843-76.091 58.322-1.459 2.551-4.747 3.357-7.265 1.841-6.559-3.947-14.855-6.243-24.763-6.243-27.358 0-56.591 17.464-56.591 39.007 0 23.552 33.44 40.455 60.182 38.891-1.602 27.383 15.839 60.182 38.891 60.182 21.543 0 39.006-29.233 39.006-56.591 0-3.387-.27-6.584-.782-9.589-.551-3.236 1.898-6.196 5.18-6.196h59.03c-28.292-27.872-43.174-79.628-36.797-119.624z" fill="#a2ddfd"/><path d="m250.529 311.531c-.033 39.468.326 59.313-7.048 80.701-3.133 9.086 4.421 18.299 13.921 16.842 74.751-11.46 74.629-63.14 74.629-98.326 0-22.224-17.791-40.293-39.907-40.742-22.856-.463-41.575 18.665-41.595 41.525z" fill="#a2ddfd"/><g fill="#fff"><ellipse cx="287.21" cy="170.209" rx="26.154" ry="20.828"/><ellipse cx="433.984" cy="170.209" rx="26.154" ry="20.828"/></g><path d="m418.742 132.695c-4.142 0-7.5 3.358-7.5 7.5v9.236c0 4.142 3.358 7.5 7.5 7.5s7.5-3.358 7.5-7.5v-9.236c0-4.142-3.358-7.5-7.5-7.5zm-77.295 63.219c4.83 5.542 11.81 8.721 19.15 8.721s14.32-3.179 19.15-8.721c2.721-3.123 2.396-7.86-.727-10.582-3.124-2.721-7.861-2.396-10.582.727-1.98 2.273-4.839 3.576-7.842 3.576s-5.861-1.303-7.842-3.576c-2.721-3.123-7.46-3.447-10.582-.727-3.121 2.722-3.446 7.459-.725 10.582zm-288.325 123.524c10.661-1.932 22.632-1.405 31.876 4.158 5.978 3.599 14.014 1.801 17.643-4.543 20.615-36.039 59.181-58.478 100.647-58.561 27.082-.054 49.747-19.25 55.004-44.65 5.122-1.989 10.617-3.041 16.277-3.041 4.142 0 7.5-3.358 7.5-7.5s-3.358-7.5-7.5-7.5c-5.175 0-10.247.661-15.127 1.926.013-30.589-.021-26.66.027-29.014 5.478 2.23 10.509 5.549 14.816 9.857 2.928 2.929 7.677 2.929 10.607 0 2.929-2.929 2.929-7.678 0-10.606-6.828-6.828-15.019-11.789-23.953-14.664 8.242-47.934 49.631-84.616 99.299-84.788 19.383-.075 38.214 5.356 54.484 15.682 3.497 2.22 8.131 1.185 10.351-2.313 2.22-3.497 1.184-8.132-2.313-10.351-18.684-11.858-40.334-18.098-62.574-18.018-56.969.197-104.453 42.159-113.994 97.025-1.218-.073-2.44-.123-3.67-.123-4.142 0-7.5 3.358-7.5 7.5s3.358 7.5 7.5 7.5c.685 0 1.367.02 2.047.05-.324 7.182.012 33.218-.162 38.469-4.401 2.573-8.506 5.719-12.207 9.419-4.539 4.539-1.614 12.254 4.683 12.774-7.466 10.471-19.751 17.34-33.626 17.368-46.057.093-88.943 24.609-112.483 64.137-12.197-6.562-26.877-7.387-40.327-4.951-4.076.738-6.781 4.641-6.043 8.717.74 4.074 4.642 6.782 8.718 6.041zm447.437 8.115c-12.953-6.311-23.245-14.708-36.599-27.483 16.59-36.439 12.012-65.863 12.792-75.67.556.504 1.101 1.022 1.635 1.556 2.929 2.929 7.678 2.929 10.606 0 2.929-2.929 2.929-7.678 0-10.606-3.71-3.71-7.827-6.862-12.241-9.439-.036-35.816.074-33.871-.086-38.45.666-.029 1.335-.049 2.006-.049 4.142 0 7.5-3.358 7.5-7.5s-3.358-7.5-7.5-7.5c-1.165 0-2.323.043-3.476.109-3.175-19.344-11.18-37.428-23.624-53.083-2.578-3.242-7.296-3.782-10.538-1.204-3.243 2.578-3.782 7.295-1.204 10.538 10.887 13.696 17.867 29.529 20.604 46.467-9.004 2.865-17.258 7.849-24.131 14.723-2.929 2.929-2.929 7.678 0 10.606 2.929 2.929 7.678 2.929 10.607 0 4.31-4.31 9.343-7.63 14.824-9.86.033 3.643.015 20.456.02 29.017-4.881-1.264-9.953-1.926-15.127-1.926-4.142 0-7.5 3.358-7.5 7.5s3.358 7.5 7.5 7.5c5.237 0 10.337.891 15.127 2.6v25.531c0 70.69-57.51 128.2-128.2 128.2h-2.757c8.273-18.703 8.733-38.747 8.736-58.382 0-11.15-3.899-22.03-10.98-30.635-2.631-3.198-7.358-3.658-10.557-1.026s-3.658 7.358-1.026 10.557c4.877 5.927 7.563 13.422 7.563 21.105 0 18.466-.235 38.148-8.54 54.806-5.413 10.856-13.811 19.316-25.371 25.502.942-4.258 1.643-8.273 2.144-11.595.619-4.096-2.2-7.918-6.296-8.536-4.098-.615-7.918 2.2-8.536 6.296-1.187 7.86-2.796 14.942-4.691 20.763-5.23 1.514-10.881 2.741-16.975 3.676-3.905.605-6.992-3.22-5.694-6.984 7.854-22.78 7.442-45.136 7.455-77.655.356-2.67-2.061-15.285 7.928-27.363 2.641-3.191 2.193-7.919-.999-10.559-3.192-2.641-7.92-2.193-10.559.999-13.763 16.637-11.013 34.438-11.371 36.917-.009 23.098-.017 38.745-1.815 52.115h-91.222c-7.934 0-13.903 7.149-12.573 14.955 5.302 31.118-21.722 76.1-47.161 49.129-9.783-10.372-15.981-28.446-15.074-43.953.261-4.46-3.418-8.179-7.925-7.925-15.549.905-33.648-5.288-44.021-15.072-11.242-10.603-11.06-22.915 1.244-33.713 3.113-2.732 3.422-7.471.69-10.584-2.732-3.114-7.471-3.422-10.584-.69-19.507 17.118-18.834 39.684-1.642 55.899 11.584 10.926 29.806 18.16 47.266 19.135.981 17.421 8.214 35.617 19.135 47.195 18.099 19.188 43.885 17.732 61.088-8.414 9.741-14.804 14.264-34.19 12.151-50.962h85.577c-.53 1.885-1.116 3.765-1.768 5.657-4.982 14.449 7.097 29.007 22.148 26.701 24.554-3.765 48.286-12.763 63.384-32.358 6.453-.638 38.821 3.747 76.701-15.658 35.583 25.23 70.539 19.032 105.153-6.379 12.27-9.009 10.52-27.846-3.221-34.541zm-5.658 22.449c-4.513 3.314-9.345 6.579-14.477 9.469-5.487-2.78-11.678-6.674-18.124-11.43-3.333-2.458-8.028-1.751-10.488 1.583-2.459 3.333-1.75 8.029 1.583 10.488 2.755 2.033 6.167 4.428 9.929 6.819-14.932 4.513-31.787 4.132-50.289-6.944 17.772-11.904 32.739-27.678 43.694-46.106 12.985 12.183 23.656 20.527 37.26 27.155 3.598 1.754 4.083 6.638.912 8.966zm-199.948-209.807v9.236c0 4.142 3.358 7.5 7.5 7.5s7.5-3.358 7.5-7.5v-9.236c0-4.142-3.358-7.5-7.5-7.5-4.143 0-7.5 3.358-7.5 7.5zm61.491 21.089c2.644 1.176 5.662 1.176 8.306 0l8.876-3.947c3.2-1.423 4.332-5.395 2.363-8.291-1.458-2.144-3.644-3.688-6.152-4.344-6.057-1.586-12.421-1.586-18.478 0-2.509.657-4.694 2.2-6.152 4.344-1.969 2.896-.837 6.868 2.362 8.291z"/></g></svg>